<svg xmlns="http://www.w3.org/2000/svg" viewBox="0 0 48 48" width="48px" height="48px">
  <circle cx="24" cy="24" r="20" fill="#ffffff"/>
  <path fill="#0068ff" d="M24,4C12.954,4,4,12.954,4,24s8.954,20,20,20s20-8.954,20-20S35.046,4,24,4z M24,36c-6.627,0-12-5.373-12-12s5.373-12,12-12s12,5.373,12,12S30.627,36,24,36z"/>
  <path fill="#0068ff" d="M28.5,17h-9C18.672,17,18,17.672,18,18.5v7c0,0.828,0.672,1.5,1.5,1.5h3.333L22.5,30l3.667-3h2.333c0.828,0,1.5-0.672,1.5-1.5v-7C30,17.672,29.328,17,28.5,17z M21,23c-0.552,0-1-0.448-1-1s0.448-1,1-1s1,0.448,1,1S21.552,23,21,23z M24,23c-0.552,0-1-0.448-1-1s0.448-1,1-1s1,0.448,1,1S24.552,23,24,23z M27,23c-0.552,0-1-0.448-1-1s0.448-1,1-1s1,0.448,1,1S27.552,23,27,23z"/>
</svg>
